# xmcd
#
# Track frame offsets:
#	150
#	13046
#	23900
#	36348
#	47912
#	58863
#	72134
#	85900
#	97973
#	110315
#
# Disc length: 1620 seconds
#
# Revision: 1
# Processed by: cddbd v1.4PL0 Copyright (c) Steve Scherf et al.
# Submitted via: audiograbber 1.80.04
#
DISCID=7e06520a
DTITLE=Willie Nelson - Certified Hits
DYEAR=2001
DGENRE=Country
TTITLE0=Crazy
TTITLE1=Hello Walls
TTITLE2=Mr. Record Man
TTITLE3=Undo The Right
TTITLE4=Half A Man
TTITLE5=Three Days
TTITLE6=Funny How Time Slips Away
TTITLE7=Cold War With You
TTITLE8=Country Willie
TTITLE9=Night Life
EXTD=Capitol Records definitive collection of Willie Nelson's early hits as a s
EXTD=ongwriter.
EXTT0=
EXTT1=
EXTT2=
EXTT3=
EXTT4=
EXTT5=
EXTT6=
EXTT7=
EXTT8=
EXTT9=
PLAYORDER=
